<mxfile host="app.diagrams.net" modified="2023-05-23T04:35:36.526Z" agent="Mozilla/5.0 (Windows NT 10.0; Win64; x64) AppleWebKit/537.36 (KHTML, like Gecko) Chrome/113.0.0.0 Safari/537.36" etag="orBpo0YrAb1waQti7o71" version="21.3.2" type="github">
  <diagram name="Page-1" id="-bQITNwEt8oXKImr4OU_">
    <mxGraphModel dx="1120" dy="484" grid="1" gridSize="10" guides="1" tooltips="1" connect="1" arrows="1" fold="1" page="1" pageScale="1" pageWidth="850" pageHeight="1100" math="0" shadow="0">
      <root>
        <mxCell id="0" />
        <mxCell id="1" parent="0" />
        <mxCell id="LWrL7f0JecC553b1cTTo-1" value="Generate Invoice" style="rounded=1;whiteSpace=wrap;html=1;" vertex="1" parent="1">
          <mxGeometry x="180" y="100" width="120" height="60" as="geometry" />
        </mxCell>
        <mxCell id="LWrL7f0JecC553b1cTTo-2" value="Update MCU Order Status" style="rounded=1;whiteSpace=wrap;html=1;" vertex="1" parent="1">
          <mxGeometry x="180" y="340" width="120" height="60" as="geometry" />
        </mxCell>
        <mxCell id="LWrL7f0JecC553b1cTTo-3" value="is websitem mcu ?" style="rhombus;whiteSpace=wrap;html=1;" vertex="1" parent="1">
          <mxGeometry x="180" y="200" width="120" height="110" as="geometry" />
        </mxCell>
        <mxCell id="LWrL7f0JecC553b1cTTo-4" value="Update Admission Status My Siloam" style="rounded=1;whiteSpace=wrap;html=1;" vertex="1" parent="1">
          <mxGeometry x="180" y="430" width="120" height="60" as="geometry" />
        </mxCell>
        <mxCell id="LWrL7f0JecC553b1cTTo-5" value="Send WA Request to Doctor Apps" style="rounded=1;whiteSpace=wrap;html=1;" vertex="1" parent="1">
          <mxGeometry x="180" y="510" width="120" height="60" as="geometry" />
        </mxCell>
        <mxCell id="LWrL7f0JecC553b1cTTo-6" value="Trigger Patient Feedback to My Siloam Mobile" style="rounded=1;whiteSpace=wrap;html=1;" vertex="1" parent="1">
          <mxGeometry x="180" y="590" width="120" height="60" as="geometry" />
        </mxCell>
        <mxCell id="LWrL7f0JecC553b1cTTo-7" value="" style="shape=crossbar;whiteSpace=wrap;html=1;rounded=1;direction=south;" vertex="1" parent="1">
          <mxGeometry x="130" y="250" width="20" height="120" as="geometry" />
        </mxCell>
        <mxCell id="LWrL7f0JecC553b1cTTo-8" value="" style="shape=crossbar;whiteSpace=wrap;html=1;rounded=1;direction=south;" vertex="1" parent="1">
          <mxGeometry x="130" y="440" width="20" height="50" as="geometry" />
        </mxCell>
        <mxCell id="LWrL7f0JecC553b1cTTo-9" value="" style="shape=crossbar;whiteSpace=wrap;html=1;rounded=1;direction=south;" vertex="1" parent="1">
          <mxGeometry x="130" y="515" width="20" height="50" as="geometry" />
        </mxCell>
        <mxCell id="LWrL7f0JecC553b1cTTo-10" value="" style="shape=crossbar;whiteSpace=wrap;html=1;rounded=1;direction=south;" vertex="1" parent="1">
          <mxGeometry x="130" y="595" width="20" height="50" as="geometry" />
        </mxCell>
        <mxCell id="LWrL7f0JecC553b1cTTo-12" value="1" style="text;html=1;align=center;verticalAlign=middle;resizable=0;points=[];autosize=1;strokeColor=none;fillColor=none;" vertex="1" parent="1">
          <mxGeometry x="110" y="295" width="30" height="30" as="geometry" />
        </mxCell>
        <mxCell id="LWrL7f0JecC553b1cTTo-13" value="2&lt;br&gt;" style="text;html=1;align=center;verticalAlign=middle;resizable=0;points=[];autosize=1;strokeColor=none;fillColor=none;" vertex="1" parent="1">
          <mxGeometry x="110" y="450" width="30" height="30" as="geometry" />
        </mxCell>
        <mxCell id="LWrL7f0JecC553b1cTTo-14" value="3" style="text;html=1;align=center;verticalAlign=middle;resizable=0;points=[];autosize=1;strokeColor=none;fillColor=none;" vertex="1" parent="1">
          <mxGeometry x="110" y="528" width="30" height="30" as="geometry" />
        </mxCell>
        <mxCell id="LWrL7f0JecC553b1cTTo-15" value="4" style="text;html=1;align=center;verticalAlign=middle;resizable=0;points=[];autosize=1;strokeColor=none;fillColor=none;" vertex="1" parent="1">
          <mxGeometry x="110" y="605" width="30" height="30" as="geometry" />
        </mxCell>
        <mxCell id="LWrL7f0JecC553b1cTTo-16" value="" style="shape=curlyBracket;whiteSpace=wrap;html=1;rounded=1;labelPosition=left;verticalLabelPosition=middle;align=right;verticalAlign=middle;size=0;" vertex="1" parent="1">
          <mxGeometry x="90" y="300" width="30" height="320" as="geometry" />
        </mxCell>
        <mxCell id="LWrL7f0JecC553b1cTTo-19" value="Generate Invoice Arch." style="text;strokeColor=none;fillColor=none;html=1;fontSize=24;fontStyle=1;verticalAlign=middle;align=center;" vertex="1" parent="1">
          <mxGeometry x="190" y="20" width="100" height="40" as="geometry" />
        </mxCell>
        <mxCell id="LWrL7f0JecC553b1cTTo-20" value="Adhoc Invoice&lt;br&gt;dipisah dari InvoiceSettlement Service&lt;br&gt;&lt;br&gt;Run Async" style="text;html=1;strokeColor=none;fillColor=none;align=center;verticalAlign=middle;whiteSpace=wrap;rounded=0;" vertex="1" parent="1">
          <mxGeometry x="20" y="445" width="60" height="30" as="geometry" />
        </mxCell>
        <mxCell id="LWrL7f0JecC553b1cTTo-21" value="" style="shape=curlyBracket;whiteSpace=wrap;html=1;rounded=1;labelPosition=left;verticalLabelPosition=middle;align=right;verticalAlign=middle;" vertex="1" parent="1">
          <mxGeometry x="80" y="110" width="20" height="50" as="geometry" />
        </mxCell>
        <mxCell id="LWrL7f0JecC553b1cTTo-22" value="Invoice Settlement Service" style="text;html=1;strokeColor=none;fillColor=none;align=center;verticalAlign=middle;whiteSpace=wrap;rounded=0;" vertex="1" parent="1">
          <mxGeometry x="10" y="115" width="60" height="30" as="geometry" />
        </mxCell>
        <mxCell id="LWrL7f0JecC553b1cTTo-23" value="Hanya bisa update untuk admission MySiloam" style="text;html=1;strokeColor=none;fillColor=none;align=center;verticalAlign=middle;whiteSpace=wrap;rounded=0;" vertex="1" parent="1">
          <mxGeometry x="310" y="435" width="180" height="50" as="geometry" />
        </mxCell>
        <mxCell id="LWrL7f0JecC553b1cTTo-25" value="Hanya admission yang ada di Admission Extention untuk keperluan Patient Feedback&lt;br&gt;" style="text;html=1;strokeColor=none;fillColor=none;align=center;verticalAlign=middle;whiteSpace=wrap;rounded=0;" vertex="1" parent="1">
          <mxGeometry x="370" y="565" width="140" height="45" as="geometry" />
        </mxCell>
        <mxCell id="LWrL7f0JecC553b1cTTo-26" value="" style="shape=curlyBracket;whiteSpace=wrap;html=1;rounded=1;flipH=1;labelPosition=right;verticalLabelPosition=middle;align=left;verticalAlign=middle;" vertex="1" parent="1">
          <mxGeometry x="340" y="525" width="20" height="120" as="geometry" />
        </mxCell>
        <mxCell id="LWrL7f0JecC553b1cTTo-27" value="" style="shape=curlyBracket;whiteSpace=wrap;html=1;rounded=1;flipH=1;labelPosition=right;verticalLabelPosition=middle;align=left;verticalAlign=middle;" vertex="1" parent="1">
          <mxGeometry x="350" y="250" width="20" height="120" as="geometry" />
        </mxCell>
        <mxCell id="LWrL7f0JecC553b1cTTo-28" value="Hanya untuk admission MCU&lt;br&gt;" style="text;html=1;strokeColor=none;fillColor=none;align=center;verticalAlign=middle;whiteSpace=wrap;rounded=0;" vertex="1" parent="1">
          <mxGeometry x="390" y="295" width="110" height="30" as="geometry" />
        </mxCell>
        <mxCell id="LWrL7f0JecC553b1cTTo-31" value="" style="endArrow=none;dashed=1;html=1;dashPattern=1 3;strokeWidth=2;rounded=0;" edge="1" parent="1">
          <mxGeometry width="50" height="50" relative="1" as="geometry">
            <mxPoint x="50" y="190" as="sourcePoint" />
            <mxPoint x="440" y="190" as="targetPoint" />
          </mxGeometry>
        </mxCell>
        <mxCell id="LWrL7f0JecC553b1cTTo-37" value="Invoice Settlement Service&lt;br&gt;" style="edgeLabel;html=1;align=center;verticalAlign=middle;resizable=0;points=[];" vertex="1" connectable="0" parent="LWrL7f0JecC553b1cTTo-31">
          <mxGeometry x="0.3231" y="1" relative="1" as="geometry">
            <mxPoint x="212" as="offset" />
          </mxGeometry>
        </mxCell>
        <mxCell id="LWrL7f0JecC553b1cTTo-32" value="" style="endArrow=none;dashed=1;html=1;dashPattern=1 3;strokeWidth=2;rounded=0;" edge="1" parent="1">
          <mxGeometry width="50" height="50" relative="1" as="geometry">
            <mxPoint x="150" y="320" as="sourcePoint" />
            <mxPoint x="360" y="320" as="targetPoint" />
          </mxGeometry>
        </mxCell>
        <mxCell id="LWrL7f0JecC553b1cTTo-38" value="Admission Service (JATIS)" style="edgeLabel;html=1;align=center;verticalAlign=middle;resizable=0;points=[];" vertex="1" connectable="0" parent="LWrL7f0JecC553b1cTTo-32">
          <mxGeometry x="0.632" y="4" relative="1" as="geometry">
            <mxPoint x="26" y="-6" as="offset" />
          </mxGeometry>
        </mxCell>
        <mxCell id="LWrL7f0JecC553b1cTTo-33" value="" style="endArrow=none;dashed=1;html=1;dashPattern=1 3;strokeWidth=2;rounded=0;" edge="1" parent="1">
          <mxGeometry width="50" height="50" relative="1" as="geometry">
            <mxPoint x="110" y="410" as="sourcePoint" />
            <mxPoint x="360" y="410" as="targetPoint" />
          </mxGeometry>
        </mxCell>
        <mxCell id="LWrL7f0JecC553b1cTTo-34" value="" style="endArrow=none;dashed=1;html=1;dashPattern=1 3;strokeWidth=2;rounded=0;" edge="1" parent="1">
          <mxGeometry width="50" height="50" relative="1" as="geometry">
            <mxPoint x="110" y="500" as="sourcePoint" />
            <mxPoint x="360" y="500" as="targetPoint" />
          </mxGeometry>
        </mxCell>
        <mxCell id="LWrL7f0JecC553b1cTTo-35" value="" style="endArrow=none;dashed=1;html=1;dashPattern=1 3;strokeWidth=2;rounded=0;" edge="1" parent="1">
          <mxGeometry width="50" height="50" relative="1" as="geometry">
            <mxPoint x="90" y="584.5" as="sourcePoint" />
            <mxPoint x="340" y="584.5" as="targetPoint" />
          </mxGeometry>
        </mxCell>
        <mxCell id="LWrL7f0JecC553b1cTTo-40" value="HIT &amp;amp; RUN&lt;br&gt;" style="text;html=1;strokeColor=none;fillColor=none;align=center;verticalAlign=middle;whiteSpace=wrap;rounded=0;" vertex="1" parent="1">
          <mxGeometry x="350" y="140" width="110" height="30" as="geometry" />
        </mxCell>
        <mxCell id="LWrL7f0JecC553b1cTTo-41" value="CRON untuk Kirim Ulang&lt;br&gt;" style="text;html=1;strokeColor=none;fillColor=none;align=center;verticalAlign=middle;whiteSpace=wrap;rounded=0;" vertex="1" parent="1">
          <mxGeometry x="460" y="140" width="110" height="30" as="geometry" />
        </mxCell>
      </root>
    </mxGraphModel>
  </diagram>
</mxfile>
